<svg xmlns="http://www.w3.org/2000/svg" style="width:0;height:0;visibility:hidden;">
    <link xmlns="http://www.w3.org/1999/xhtml" rel="stylesheet" href="../css/main.css" type="text/css"/>

<defs>

</defs>
    <symbol id="alahly-logo-background"  viewBox="0 0 312.15 398.41" >
      <path class="alahly-logo-background-path1" d="M156.07,397.4c-31.21,0-135.58-23.65-135.56-106.52V21.37C40.93,15.57,99.96,2.29,155.83,2.29s115.82,13.24,135.81,19.06V290.89c-.01,82.86-104.75,106.52-135.56,106.52Z"></path>
    </symbol>
    <symbol id="alahly-logo-black" viewBox="0 0 312.15 398.41" >
        <path class="alahly-logo-black-path1" d="M301.49,18.88S224.07,1,155.78,1.29C88.31,1.58,10.51,18.88,10.51,18.88V290.89c0,68.8,96.82,103.17,121.79,106.38,11.79,1.52,35.75,1.52,47.54,0,24.97-3.21,121.79-37.58,121.79-106.38V19.03c0-.08-.06-.14-.14-.14Zm-9.86,272c0,76.52-91.99,106.52-135.56,106.52S20.51,367.87,20.51,290.89V22.37C40.93,16.57,74.56,3.25,156.07,3.25s115.57,13.28,135.56,19.1V290.89Z"></path>
    </symbol>
    <symbol id="alahly-logo-brown" viewBox="0 0 312.15 398.41" >
        <linearGradient id="gradient-brown">
            <stop id="gradient-brown-color1" offset="0" />
            <stop id="gradient-brown-color2" offset="1" />
        </linearGradient>
        <path class="alahly-logo-brown-path1" d="M156.07,0C72.65,0,0,18.88,0,18.88V290.89c0,68.8,103.9,103.17,130.59,106.38,12.65,1.52,38.32,1.52,50.97,0,26.69-3.21,130.59-37.58,130.59-106.38V18.88S236.84,0,156.07,0Zm145.56,290.89c0,68.8-96.82,103.17-121.79,106.38-11.79,1.52-35.75,1.52-47.54,0-24.97-3.21-121.79-37.58-121.79-106.38V18.88S88.31,1.58,155.78,1.29c68.29-.29,145.71,17.59,145.71,17.59,.08,0,.14,.06,.14,.14V290.89Z"></path>
    </symbol>
    
    <symbol id="alahly-logo-eagle-shadow" viewBox="0 0 312.15 398.41" >
        <path   d="M101.79,100.82s-11.85,8.59-11.85,22.82c0,0-7.7-7.71-13.63-26.67,0,0-11.85,2.67-11.56,24.89,0,0-6.52-2.08-8.89-5.33,0,0-6.22,15.41,.89,32.6l-9.19-2.67s-5.93,10.37,6.52,24c0,0-9.19,11.56,7.11,21.34,0,0-7.11,13.93,14.52,19.56,0,0-3.56,18.67,62.53,26.08,13.04,.3,.89,5.93-5.33,7.11-6.22,1.18-26.97,2.37-38.23-12.45,0,0-7.71,5.63-4.15,14.22,0,0-4.74,10.67,1.19,18.67,0,0,21.34,28.74,35.27,18.08,13.93-10.67,15.41-10.07,15.41-10.07v19.26s7.11,4.15,5.04,7.7c-2.07,3.56-4.15,8.59,1.78,8,5.93-.59,7.11,0,7.11,0,0,0,.59,6.52,5.33,5.63,4.74-.89,11.56-11.26,3.56-16.6,0,0-4.74-2.08-2.96-6.82,1.78-4.74,3.85,.89,4.44,2.37,.59,1.48,3.85,4.74,8.3-.3,0,0,6.22,1.48,8.3-1.78,2.07-3.26,.89-8.3-1.19-10.08-2.08-1.78-9.48-8-9.48-8,0,0,11.26-19.26,42.38-36.75,0,0,5.72-5.27,11.35-.23,0,0,9.56-18.67-25.56-17.11,0,0,18.36-25.92,29.62-42.22,11.26-16.3,40.3-41.49,48.01-45.34,0,0-9.19-6.82-24.89,4.15,0,0,23.41-27.56,30.23-32.6,0,0-29.93-4.74-52.45,40.9,0,0,5.04-21.34,20.74-36.16,0,0-8.89-8.59-28.15,13.93l.59-9.78s-14.82,4.15-21.34,19.56l-3.56-8.3s-10.52,9.04-12.45,21.63l-6.22-3.56s-8,11.85-5.93,24.89h-7.7s-3.26,26.97-1.48,34.38c0,0-13.34-8.89-17.48-12.15-4.15-3.26-28.75-13.04-46.53-86.83Z"></path>
     </symbol>
    <symbol id="alahly-logo-eagle-body-tail" viewBox="0 0 312.15 398.41">
        <path   d="M109.2,244.7s-11.56,.89-15.56-2.67,.89-8,3.56-4.89,9.34,7.56,12,7.56Z" class="svg-elem-20"></path>
     </symbol>
    <symbol id="alahly-logo-eagle-body" viewBox="0 0 312.15 398.41">
        <path  d="M278.56,104.56s-29.78,4-43.56,36.01c-4,8.89-8,5.78-5.33-3.11s13.34-25.34,19.56-30.23c0,0-23.56,7.56-31.12,34.23-2.22,10.67-4.89,5.33-4.89,.44s4-20.89,8.89-25.78c0,0-14.67,2.67-19.11,30.67-.44,9.34-3.56,5.78-3.56,.44s.44-19.56,.44-19.56c0,0-11.11,8.89-10.22,25.34,0,8.45-3.56,6.22-4.45,2.67s-1.78-8-1.78-8c0,0-5.78,6.67-4.45,21.78,.44,6.67-4,9.78-10.22-1.33,0,0-3.5,29.06,.74,35.3,4.18,6.15,4.28,6.84,5.23,8.53,1.02,1.82,3.37,13.52,.7,5.51-2.67-8-9.34-14.22-12.89-16.45s-48.01-22.23-61.79-92.91c0,0-10.22,10.67-3.11,32.9,0,0-7.11,4.89-22.67-36.45,0,0-16.45,17.34,8.89,42.23,13.34,10.22,1.78,10.67-6.67,1.78s-18.67-25.78-18.67-25.78c0,0-6.22,27.12,22.23,40.9,9.78,6.22,6.67,10.67-3.11,5.33s-23.12-15.56-23.12-15.56c0,0-3.11,19.11,23.56,24.89,12.45,3.56,12.89,10.22,4.89,9.78s-24-9.34-26.67-11.56c0,0,0,16.45,25.78,19.56,10.67,.89,11.11,6.22,2.67,5.78s-21.34-6.22-21.34-6.22c0,0,1.78,13.34,27.56,13.78,8.89,0,8.45,6.22-.44,5.78s-11.11-.89-11.11-.89c0,0,12.89,17.78,60.46,19.56,15.11,.44,4.89,4.89,2.67,7.11s-9.78,8-18.67,8-30.67,.89-30.67,.89l-.44,10.67s9.34,0,13.34-1.78,7.56,.89,3.56,4.45c-4,3.56-13.78,3.11-13.78,3.11,0,0,16.89,17.78,24.89,12.89,8-4.89,17.78-10.67,21.34-13.78,3.56-3.11,7.56-3.56,6.22,3.56-1.33,7.11-3.11,20,.89,23.12s5.78,7.11,1.33,9.78c0,0,8.45-1.33,9.78,2.67,1.33,4,3.56,2.22,4-.89,.44-3.11-2.22-5.33-4.89-6.67s-4-6.22-.89-13.78c.74-1.8,3.74-6.05,8.13-11.38,.64,2.1,1.26,4.94,.76,6.94-.89,3.56-.89,8.89,2.67,6.22,3.56-2.67,4.45-3.56,5.11-.89,.67,2.67,4.45,3.78,5.33,.67,.89-3.11-3.11-4.67-5.78-5.11s-3.56-2.44-4-5.56c-.23-1.59-.69-3.94-1.08-5.85,14.8-17.15,40.56-41.47,55.09-37.05,0,0,3.33-12.67-18.23-12-15.21,.47-14.97-.8-14.97-3.2,0-1.06,2.35-1.18,10.08-3.03,0,0,11.11-11.56,21.34-32.01,10.22-20.45,44.9-47.56,50.23-49.34,0,0-14.22,0-23.56,6.22,0,0,10.67-20,28.89-33.34Zm-178.26,42.08s6.82,18.08,15.11,26.38c0,0-21.93-8.3-15.11-26.38Zm-2.07,34.67c2.67,3.26,17.48,9.48,17.48,9.48-20.45,3.56-17.48-9.48-17.48-9.48Zm0-16c3.85,8,17.48,16.89,17.48,16.89-23.71,.3-17.48-16.89-17.48-16.89Zm115.28,57.2c1.31,0,2.37,1,2.37,2.22s-1.06,2.22-2.37,2.22-2.37-.99-2.37-2.22,1.06-2.22,2.37-2.22Zm-21.04,12.15c0,1.47-1.13,2.67-2.52,2.67s-2.52-1.19-2.52-2.67,1.13-2.67,2.52-2.67,2.52,1.19,2.52,2.67Zm-3.71-4.15c-1.39,0-2.52-1.13-2.52-2.52s1.13-2.52,2.52-2.52,2.52,1.13,2.52,2.52-1.13,2.52-2.52,2.52Zm2.22-10.22c0,1.55-1.19,2.81-2.67,2.81s-2.67-1.26-2.67-2.81,1.19-2.82,2.67-2.82,2.67,1.26,2.67,2.82Z" class="svg-elem-21"></path>
    </symbol>

    <symbol id="alahly-logo-shield" viewBox="0 0 312.15 398.41" >
        <path id="alahly-logo-shield-lower"  class="cls-2 svg-elem-4" d="M156.07,388.15c40.9,0,121.43-20.36,126.68-104.2v-92.2c-116.71,84.66-239.36,113.14-249.33,115.35,0,29.5,53,81.04,122.65,81.04Z"></path>
        <path id="alahly-logo-shield-upper"  class="cls-2 svg-elem-5" d="M28.93,19.25V186.14c152.61-35.44,236.93-109.16,253.82-125.14,0-25.16,0-41.75,0-41.75C226.47,2.29,136.42-8.4,28.93,19.25Z"></path>
    </symbol>
      <symbol id="alahly-logo-word-ar" viewBox="0 0 312.15 398.41" >
            <path id="alahly-logo-alahly-ar-alef"  class="cls-1 svg-elem-6" d="M224.86,33.05c-11.44-16.52-10.17-8.15-10.65-2.84-1.42,15.62,4.26,26.62,4.26,26.62-.71-28.39,9.76-20.24,9.23,4.97-.71,33.72-37.98,28.93-37.98,28.93,50.05,22.36,51.11-34.61,35.14-57.68Z"></path>
            <path id="alahly-logo-alahly-ar-word"  class="cls-1 svg-elem-7" d="M201.79,33.05c-10.65-17.04-10.17-8.15-10.65-2.84-1.42,15.62,4.26,26.62,4.26,26.62-.71-28.39,8.52-20.23,9.23,4.97,.71,25.2-14.55,14.91-14.55,14.91,0,0,3.55-17.39-2.49-34.07,0,0-16.33-1.06-7.1,33.72,0,0-17.04,15.97-21.65-11.71,0,0,16.33-9.94,12.78-25.2-3.55-15.26-25.2-29.46-26.26,.36,0,0,1.78,16.33,4.26,2.48,2.48-13.84,11-18.81,16.68,3.55,0,0-14.55-20.23-12.42,12.42,0,0-29.46,18.46-35.14-5.32,0,0,.36-4.61-1.06-12.78-1.42-8.16-1.06-6.74-2.13-13.49-1.06-6.74-6.74-5.68-5.68,5.68,1.06,11.36,2.13,13.49-1.06,17.39-3.19,3.9-15.97,21.3-4.26,22.72,6.39-1.77,7.45,2.84,5.32,8.52-2.13,5.68-17.75,6.03-22.36-1.06-4.61-7.1-.71-15.62,1.42-19.88,2.13-4.26,12.42-18.81,11-25.56-1.42-6.74-4.61-8.87-6.03,.35-1.42,9.23-6.39,16.33-8.87,19.52-2.48,3.19-9.23,20.59,.35,35.14,9.58,14.55,29.11,0,31.23-6.39,2.13-6.39,.71-12.07-1.78-14.55-2.48-2.49-8.16-4.26-5.68-9.23,2.48-4.97,4.97-7.1,5.32-1.42,.35,5.68,9.58,27.33,38.69,10.29,0,0,9.94,40.82,33.01,16.68,32.66,17.04,26.26-34.78,15.62-51.82Zm-39.04,15.97l-4.26,3.55s-2.13-9.94,4.26-3.55Zm21.3,20.94s-4.97-5.32,.35-15.26c0,0,4.97,8.52-.35,15.26Z"></path>
            <path id="alahly-logo-alahly-ar-hamza"  data-name="Ahly Ar" class="cls-1 svg-elem-8" d="M178.63,29.65c-2.18,2.42-3.62,6.1,0,6.1s2.94,1.58,.68,3.16-.23,2.94,2.94,1.13,5.65-6.55,1.81-6.1-1.58-2.49-.68-3.62-.68-5.2-4.75-.68Z"></path>
      </symbol>
      <symbol id="alahly-logo-word-en-1907" viewBox="0 0 312.15 398.41" >
            <path id="alahly-logo-word-en-1907-1" data-name="1" class="cls-1 svg-elem-15" d="M137.67,353.07v28.1h-6.21v-15.06c0-2.18-.05-3.48-.14-3.92s-.35-.77-.76-1c-.42-.22-1.34-.34-2.77-.34h-.61v-3.28c3-.73,5.28-2.23,6.84-4.5h3.66Z"></path>
            <path id="alahly-logo-word-en-1907-9" data-name="9" class="cls-1 svg-elem-16" d="M140.08,373.71h6.21c0,1.31,.01,2.13,.05,2.47,.03,.34,.16,.63,.38,.86,.22,.23,.52,.35,.9,.35,.32,0,.58-.11,.78-.33,.21-.22,.32-.5,.35-.85,.02-.35,.04-1.05,.04-2.1v-4.48c-.31,.75-.77,1.32-1.38,1.69-.61,.38-1.38,.56-2.29,.56-1.14,0-2.14-.35-3.01-1.04-.87-.7-1.42-1.53-1.66-2.5-.24-.97-.35-2.28-.35-3.94v-2.24c0-1.97,.07-3.43,.21-4.39,.14-.96,.49-1.85,1.07-2.66,.57-.82,1.37-1.45,2.38-1.9,1.01-.45,2.19-.68,3.53-.68,1.66,0,3.02,.26,4.09,.78,1.06,.52,1.89,1.27,2.47,2.25,.58,.98,.92,2,1.01,3.08,.09,1.08,.14,3.16,.14,6.25v3.91c0,3.34-.04,5.58-.12,6.71-.08,1.13-.44,2.2-1.07,3.2-.63,1-1.48,1.76-2.56,2.26-1.07,.5-2.32,.75-3.73,.75-1.75,0-3.18-.32-4.29-.96s-1.91-1.53-2.4-2.69c-.49-1.16-.73-2.61-.73-4.37Zm6.21-8.77c0,1.18,.14,1.91,.41,2.19,.27,.28,.55,.42,.84,.42,.43,0,.74-.18,.94-.53,.2-.35,.3-1.04,.3-2.08v-5.08c0-1.24-.09-2.05-.28-2.43-.19-.38-.5-.57-.95-.57-.27,0-.54,.15-.83,.44-.29,.29-.43,1.09-.43,2.38v5.26Z"></path>
            <path id="alahly-logo-word-en-1907-0" data-name="0" class="cls-1 svg-elem-17" d="M171.75,362.58v9.37c0,2.13-.1,3.68-.31,4.65-.2,.97-.63,1.88-1.27,2.72-.65,.85-1.42,1.45-2.34,1.82-.91,.37-1.93,.56-3.06,.56-1.49,0-2.72-.19-3.7-.58-.98-.39-1.77-.99-2.35-1.81-.58-.82-1-1.69-1.25-2.59-.25-.91-.37-2.35-.37-4.33v-9.81c0-2.58,.2-4.51,.59-5.8,.4-1.28,1.18-2.31,2.35-3.09,1.17-.77,2.59-1.16,4.26-1.16,1.36,0,2.58,.27,3.66,.81,1.08,.54,1.88,1.19,2.41,1.97,.53,.77,.89,1.65,1.08,2.62,.19,.97,.28,2.52,.28,4.65Zm-6.2-2.36c0-1.49-.06-2.43-.19-2.8-.13-.38-.43-.56-.9-.56s-.77,.2-.91,.6c-.15,.4-.22,1.32-.22,2.77v13.71c0,1.63,.07,2.62,.21,2.95,.14,.33,.44,.5,.9,.5s.76-.2,.91-.59c.14-.39,.22-1.28,.22-2.66v-13.92Z"></path>
            <path id="alahly-logo-word-en-1907-7" data-name="7" class="cls-1 svg-elem-18" d="M184.92,353.07v6.12l-3.96,21.98h-6.18l4.42-23.05h-6.14v-5.05h11.86Z"></path>
      </symbol>
      <symbol id="alahly-logo-word-en-alahly" viewBox="0 0 312.15 398.41" >
            <path id="alahly-logo-word-en-alahly-A" class="cls-1 svg-elem-9" d="M82.42,313.69h6.86l10.26,32.78h-6.57l-1.91-6.74h-10.68l-1.97,6.74h-6.34l10.36-32.78Zm-.4,20.39h7.43l-3.66-12.9-3.77,12.9Z"></path>
            <path id="alahly-logo-word-en-alahly-L" class="cls-1 svg-elem-10" d="M103.23,313.69h6.06v26.89h14.49v5.89h-20.55v-32.78Z"></path>
            <path id="alahly-logo-word-en-alahly-A2" class="cls-1 svg-elem-11" d="M145.17,313.69h6.86l10.26,32.78h-6.57l-1.91-6.74h-10.68l-1.97,6.74h-6.34l10.36-32.78Zm-.4,20.39h7.43l-3.66-12.9-3.77,12.9Z"></path>
            <path id="alahly-logo-word-en-alahly-H" class="cls-1 svg-elem-12" d="M165.94,346.46v-32.78h6.02v12.5h11.28v-12.5h6.02v32.78h-6.02v-14.63h-11.28v14.63h-6.02Z"></path>
            <path id="alahly-logo-word-en-alahly-L-2" data-name="L" class="cls-1 svg-elem-13" d="M195.09,313.69h6.06v26.89h14.49v5.89h-20.55v-32.78Z"></path>
            <path id="alahly-logo-word-en-alahly-Y" class="cls-1 svg-elem-14" d="M232.56,313.69h6.87l-9.7,20.49v12.29h-6.06v-12.29l-10.04-20.49h7.15l6.02,14.28,5.77-14.28Z"></path>
      </symbol>
    <linearGradient id="gradient-2step" x2=".25" y2=".5">
        <stop offset="var(--gradient-2step-offset1)" stop-color="var(--gradient-2step-color-stop-1)" />
        <stop offset="1" stop-color="var(--gradient-2step-color-stop-2)" />
    </linearGradient>

    <!-- <symbol viewBox="0 0 1500 828" id="icon-arrow-3pt-down">
        <title>arrow-3pt-down</title>
        <path d="M1500 0H0l738.9 827.7z"/>
    </symbol> -->
</svg>